# xmcd CD database file
#
# Track frame offsets:
#	150
#	14942
#	28860
#	43307
#	54217
#	64967
#	79665
#	94092
#	108317
#	122505
#	136452
#	150393
#	163845
#	173720
#	187505
#	201081
#	213494
#	228191
#
# Disc length: 3218 seconds
#
# Revision: 0
# Processed by: cddbd v1.5.2PL0 Copyright (c) Steve Scherf et al.
# Submitted via: CDex 1.51
#
DISCID=ef0c9012
DTITLE=Peggy Lee - The Discovery of Jazz
DYEAR=1900
DGENRE=Jazz
TTITLE0=Be anything  (but be mine)
TTITLE1=Ev'rything I love
TTITLE2=A nightingale can sing the blues
TTITLE3='taint't so, honey
TTITLE4=Goody goody
TTITLE5=Blues in the night
TTITLE6=A woman alone with the blues
TTITLE7=Bali ha'i
TTITLE8=Don't smoke in bed
TTITLE9=Happiness is a thing called Joe
TTITLE10=How deep is the ocean
TTITLE11=Everything moving' too fast
TTITLE12=(When I dance with you) I get ideas
TTITLE13=Deed I do
TTITLE14=Baby, don't be mad at me
TTITLE15=Easy living
TTITLE16=(Ah, the apple trees) when the world was young
TTITLE17=Baby (is what he calls me)
EXTD=
EXTT0=
EXTT1=
EXTT2=
EXTT3=
EXTT4=
EXTT5=
EXTT6=
EXTT7=
EXTT8=
EXTT9=
EXTT10=
EXTT11=
EXTT12=
EXTT13=
EXTT14=
EXTT15=
EXTT16=
EXTT17=
PLAYORDER=
